<?xml version="1.0"?>
<svg xmlns="http://www.w3.org/2000/svg" height="512px" viewBox="0 -46 512 512" width="512px"><path d="m256 260c-38.597656 0-70-31.402344-70-70s31.402344-70 70-70 70 31.402344 70 70-31.402344 70-70 70zm0-120c-27.570312 0-50 22.429688-50 50s22.429688 50 50 50 50-22.429688 50-50-22.429688-50-50-50zm0 0" fill="#FFFFFF"/><path d="m482 0h-452c-16.539062 0-30 13.460938-30 30v320c0 16.539062 13.460938 30 30 30h16v20c0 11.03125 8.96875 20 20 20h20c11.03125 0 20-8.96875 20-20v-20h300v20c0 11.03125 8.96875 20 20 20h20c11.03125 0 20-8.96875 20-20v-20h16c16.539062 0 30-13.460938 30-30v-320c0-16.539062-13.460938-30-30-30zm-462 130h70c14.375 0 11.171875 18.367188-1.238281 20-6.921875.910156-14.605469 0-21.570313 0-15.730468 0-31.460937 0-47.191406 0zm50 140c15.648438 0 33.019531 2.273438 43.808594-11.785156 14.835937-19.320313.507812-48.214844-23.808594-48.214844h-20v-40c15.648438 0 33.019531 2.273438 43.808594-11.785156 14.835937-19.320313.507812-48.214844-23.808594-48.214844h-20v-30c0-5.511719 4.488281-10 10-10h352c5.511719 0 10 4.488281 10 10v220c0 5.511719-4.488281 10-10 10h-352c-5.511719 0-10-4.488281-10-10zm-50-100h30v40h-30zm70 60c14.375 0 11.171875 18.367188-1.238281 20-6.921875.910156-14.605469 0-21.570313 0-15.730468 0-31.460937 0-47.191406 0v-20zm-4 170h-20v-20h20zm360 0h-20v-20h20l.011719 20s0 0-.011719 0zm46-50c0 5.511719-4.488281 10-10 10h-452c-5.511719 0-10-4.488281-10-10v-80h30v30c0 16.539062 13.460938 30 30 30h352c16.539062 0 30-13.460938 30-30v-220c0-16.539062-13.460938-30-30-30h-352c-16.539062 0-30 13.460938-30 30v30h-30v-80c0-5.511719 4.488281-10 10-10h452c5.511719 0 10 4.488281 10 10zm0 0" fill="#FFFFFF"/><path d="m256 220c-16.542969 0-30-13.457031-30-30s13.457031-30 30-30 30 13.457031 30 30-13.457031 30-30 30zm0-40c-5.515625 0-10 4.484375-10 10s4.484375 10 10 10 10-4.484375 10-10-4.484375-10-10-10zm0 0" fill="#FFFFFF"/><path d="m399 272c-5.523438 0-10-4.476562-10-10v-100c0-5.523438 4.476562-10 10-10s10 4.476562 10 10v100c0 5.523438-4.476562 10-10 10zm0 0" fill="#FFFFFF"/><path d="m399.019531 132c-5.523437 0-10.003906-4.476562-10.003906-10s4.472656-10 9.996094-10h.007812c5.523438 0 10 4.476562 10 10s-4.476562 10-10 10zm0 0" fill="#FFFFFF"/></svg>
